<svg width="23" height="23" viewBox="0 0 23 23" fill="none" xmlns="http://www.w3.org/2000/svg">
<path d="M15.8125 5.27083C16.3208 5.27083 16.8083 5.0689 17.1678 4.70945C17.5272 4.35001 17.7292 3.8625 17.7292 3.35417C17.7292 2.84583 17.5272 2.35832 17.1678 1.99888C16.8083 1.63943 16.3208 1.4375 15.8125 1.4375C15.3042 1.4375 14.8167 1.63943 14.4572 1.99888C14.0978 2.35832 13.8958 2.84583 13.8958 3.35417C13.8958 3.8625 14.0978 4.35001 14.4572 4.70945C14.8167 5.0689 15.3042 5.27083 15.8125 5.27083ZM12.3625 18.5917L13.3208 14.375L15.3333 16.2917V22.0417H17.25V14.8542L15.2375 12.9375L15.8125 10.0625C16.4691 10.815 17.2792 11.4182 18.1884 11.8314C19.0975 12.2447 20.0847 12.4585 21.0833 12.4583V10.5417C19.3967 10.5704 17.825 9.68875 16.9625 8.24167L16.0042 6.70833C15.6592 6.13333 15.0458 5.75 14.375 5.75C14.0875 5.75 13.8958 5.84583 13.6083 5.84583L8.625 7.95417V12.4583H10.5417V9.2L12.2667 8.52917L10.7333 16.2917L6.0375 15.3333L5.65416 17.25L12.3625 18.5917ZM3.83333 8.625C3.57917 8.625 3.33541 8.52403 3.15569 8.34431C2.97596 8.16459 2.875 7.92083 2.875 7.66667C2.875 7.4125 2.97596 7.16875 3.15569 6.98902C3.33541 6.8093 3.57917 6.70833 3.83333 6.70833H6.70833V8.625H3.83333ZM4.79166 4.79167C4.5375 4.79167 4.29374 4.6907 4.11402 4.51098C3.9343 4.33125 3.83333 4.0875 3.83333 3.83333C3.83333 3.57917 3.9343 3.33541 4.11402 3.15569C4.29374 2.97597 4.5375 2.875 4.79166 2.875H9.58333V4.79167H4.79166ZM2.875 12.4583C2.62083 12.4583 2.37708 12.3574 2.19735 12.1776C2.01763 11.9979 1.91666 11.7542 1.91666 11.5C1.91666 11.2458 2.01763 11.0021 2.19735 10.8224C2.37708 10.6426 2.62083 10.5417 2.875 10.5417H6.70833V12.4583H2.875Z" fill="#3E3E3E"/>
</svg>
